<?xml version="1.0" standalone="no"?>
<!DOCTYPE svg PUBLIC "-//W3C//DTD SVG 20010904//EN"
 "http://www.w3.org/TR/2001/REC-SVG-20010904/DTD/svg10.dtd">
<svg version="1.0" xmlns="http://www.w3.org/2000/svg"
 width="1112.000000pt" height="1112.000000pt" viewBox="0 0 1112.000000 1112.000000"
 preserveAspectRatio="xMidYMid meet">
<metadata>
Created by potrace 1.14, written by Peter Selinger 2001-2017
</metadata>
<g transform="translate(0.000000,1112.000000) scale(0.100000,-0.100000)"
fill="#000000" stroke="none">
<path d="M5545 10741 c-6 -5 -305 -179 -665 -386 -360 -208 -709 -409 -775
-448 -66 -38 -223 -129 -350 -202 -126 -72 -509 -293 -850 -490 -341 -197
-667 -386 -726 -419 -58 -34 -331 -191 -607 -351 l-502 -289 0 -2596 0 -2596
667 -384 c366 -212 714 -412 772 -446 58 -33 165 -94 236 -136 72 -41 189
-109 260 -150 72 -41 468 -270 880 -508 413 -238 806 -465 875 -505 69 -39
186 -107 260 -150 532 -309 542 -314 564 -303 12 6 314 180 671 386 358 207
691 399 740 427 50 28 545 314 1100 635 556 321 1062 613 1125 649 63 37 278
161 478 276 l362 210 0 2595 0 2596 -97 56 c-153 88 -398 229 -508 293 -55 32
-156 90 -225 130 -460 266 -1372 792 -1455 840 -55 32 -156 90 -225 130 -69
40 -447 258 -840 485 -393 227 -773 446 -845 488 -71 41 -167 97 -213 123 -88
52 -93 54 -107 40z m-1095 -3665 c258 -53 423 -137 565 -288 150 -159 225
-362 225 -611 0 -221 -74 -411 -223 -572 -70 -76 -205 -175 -297 -217 -27 -13
-50 -28 -50 -34 0 -6 146 -304 325 -663 179 -359 325 -657 325 -662 0 -5 -86
-9 -209 -9 l-208 0 -304 630 -304 630 -307 0 -308 0 0 -630 0 -630 -195 0
-195 0 0 1541 0 1540 538 -3 c464 -4 549 -6 622 -22z m1889 -68 c16 -51 127
-392 246 -758 119 -366 220 -669 225 -673 4 -5 26 45 48 110 22 65 81 234 131
376 50 141 132 373 182 515 50 141 111 317 136 390 l45 132 244 0 244 0 0
-1540 0 -1540 -190 0 -190 0 0 618 c0 339 7 869 15 1177 8 308 14 594 14 635
l0 75 -61 -175 c-34 -96 -161 -465 -282 -820 l-221 -645 -114 0 -114 0 -48
145 c-165 501 -459 1417 -459 1429 0 9 -3 11 -8 5 -4 -5 -3 -211 4 -459 7
-247 13 -795 13 -1217 l1 -768 -185 0 -185 0 0 1540 0 1540 239 0 239 0 31
-92z"/>
<path d="M3680 6190 l0 -590 299 0 c350 0 420 9 549 71 162 78 271 215 307
384 62 298 -88 585 -353 676 -116 40 -210 49 -513 49 l-289 0 0 -590z"/>
</g>
</svg>
